<svg width="23" height="20" viewBox="0 0 23 20" fill="none" xmlns="http://www.w3.org/2000/svg">
<path d="M22.2497 4.46875C22.1236 3.97529 21.929 3.50194 21.6716 3.0625C21.4243 2.60535 21.1081 2.18901 20.7341 1.82812C20.1919 1.2877 19.5497 0.857855 18.8435 0.562495C17.4218 -0.0209588 15.8276 -0.0209588 14.406 0.562495C13.7384 0.845055 13.1251 1.24159 12.5935 1.73437L12.5153 1.82812L11.4997 2.84375L10.4841 1.82812L10.406 1.73437C9.87432 1.24159 9.26101 0.845055 8.59346 0.562495C7.17183 -0.0209588 5.57759 -0.0209588 4.15596 0.562495C3.44968 0.857855 2.80756 1.2877 2.26533 1.82812C1.52371 2.54973 0.998724 3.4644 0.749706 4.46875C0.61723 4.97878 0.554161 5.50435 0.562206 6.03125C0.562206 6.52656 0.624706 7.02031 0.749706 7.5C0.880697 7.98444 1.06956 8.45134 1.31221 8.89062C1.57426 9.3422 1.89473 9.75723 2.26533 10.125L11.4997 19.3594L20.7341 10.125C21.1044 9.76093 21.4216 9.34375 21.6716 8.89062C22.1791 8.0236 22.4435 7.03585 22.4372 6.03125C22.4453 5.50435 22.3822 4.97877 22.2497 4.46875ZM20.6872 7.01562C20.5001 7.72956 20.1282 8.38163 19.6091 8.90625L11.4685 17.0312L3.32783 8.90625C3.06255 8.63908 2.83161 8.3399 2.64033 8.01562C2.46034 7.69481 2.31874 7.35392 2.21846 7C2.13839 6.64612 2.09649 6.28468 2.09346 5.92187C2.09558 5.54869 2.13748 5.17679 2.21846 4.8125C2.3158 4.45756 2.45755 4.11632 2.64033 3.79687C2.82783 3.46875 3.05908 3.17187 3.32783 2.90625C3.72923 2.51022 4.20079 2.19231 4.71846 1.96875C5.7616 1.55144 6.92531 1.55144 7.96846 1.96875C8.48408 2.18281 8.94971 2.49687 9.34346 2.89062L11.4685 5.03125L13.5935 2.89062C13.9869 2.49617 14.4541 2.18294 14.9685 1.96875C16.0116 1.55144 17.1753 1.55144 18.2185 1.96875C18.7356 2.19218 19.2075 2.51093 19.6091 2.90625C19.881 3.16406 20.1091 3.46406 20.281 3.79687C20.6429 4.43509 20.8314 5.15694 20.8278 5.89062C20.8491 6.26816 20.8175 6.64681 20.7341 7.01562H20.6872Z" fill="#574AE8"/>
</svg>
